<svg width="34" height="34" fill="none" xmlns="http://www.w3.org/2000/svg"><path d="M17 0C7.61 0 0 7.611 0 17c0 9.388 7.611 17 17 17 9.388 0 17-7.612 17-17C34 7.61 26.388 0 17 0zm0 5.971l10.06 6.273H6.94L17 5.971zm10.185 16.29a1.821 1.821 0 01-1.822 1.822H8.637a1.821 1.821 0 01-1.821-1.821v-9.619c0-.106.01-.21.028-.311l9.612 5.993c.012.008.024.013.036.02a1.006 1.006 0 00.248.102l.022.004c.079.019.158.03.238.03h.001c.08 0 .16-.011.237-.03l.023-.005a1.015 1.015 0 00.248-.102c.011-.006.024-.011.036-.019l9.612-5.993c.017.101.028.205.028.311v9.619z" fill="#fff"/></svg>