<svg width="34" height="34" fill="none" xmlns="http://www.w3.org/2000/svg"><path fill-rule="evenodd" clip-rule="evenodd" d="M17 34c9.389 0 17-7.611 17-17S26.389 0 17 0 0 7.611 0 17s7.611 17 17 17zm3.087-13.77c.65-.645 1.465-.645 2.119 0 .794.791 1.59 1.582 2.38 2.377.662.666.658 1.481-.008 2.155-.154.156-.312.309-.47.462-.302.294-.604.588-.883.9-.62.695-1.394.92-2.285.87-1.294-.072-2.484-.5-3.633-1.058a19.806 19.806 0 01-6.56-5.131c-1.352-1.607-2.467-3.359-3.2-5.332-.358-.953-.612-1.93-.533-2.967.05-.637.288-1.182.758-1.627.305-.29.599-.587.893-.884.197-.199.393-.397.593-.594.649-.64 1.465-.64 2.118-.004.27.264.535.531.8.798l.399.4c.193.196.387.39.58.583l.581.583c.682.687.682 1.486.004 2.168l-.21.212c-.416.42-.83.84-1.255 1.25-.129.128-.141.232-.075.39.329.783.8 1.478 1.328 2.127 1.065 1.307 2.268 2.468 3.704 3.371.186.116.384.213.582.31.13.065.26.129.388.198.162.091.274.062.408-.075.486-.5.982-.99 1.477-1.482zm1.324-3.317l1.535-.262a6.864 6.864 0 00-1.918-3.704 6.827 6.827 0 00-3.912-1.952l-.217 1.544a5.297 5.297 0 013.03 1.511 5.297 5.297 0 011.482 2.863zM17.319 7a11.324 11.324 0 016.493 3.238A11.406 11.406 0 0127 16.385l-1.536.262a9.81 9.81 0 00-2.75-5.306 9.82 9.82 0 00-5.611-2.797L17.319 7z" fill="#FFC700"/></svg>